<svg viewBox="0 0 200 200" xmlns="http://www.w3.org/2000/svg">
  <circle cx="100" cy="100" r="40" fill="#3B82F6" stroke="none"/>

  <circle cx="100" cy="100" r="60" fill="none" stroke="#60A5FA" stroke-width="3" opacity="0.6"/>
  <circle cx="100" cy="100" r="80" fill="none" stroke="#93C5FD" stroke-width="2" opacity="0.4"/>
  <circle cx="100" cy="100" r="100" fill="none" stroke="#DBEAFE" stroke-width="1" opacity="0.3"/>

  <g transform="matrix(1, 0, 0, 1, 100, 107.250008)">
    <rect x="-3" y="-26" width="6" height="8" rx="3" fill="white"/>
    <path d="M -15 -18 C -15 -24 -8 -30 0 -30 C 8 -30 15 -24 15 -18 L 15 0 C 15 3 12 6 9 6 L -9 6 C -12 6 -15 3 -15 0 Z" fill="white"/>
    <ellipse cx="0" cy="6" rx="18" ry="3" fill="white"/>
    <circle cx="0" cy="12" r="3.5" fill="white"/>
    <path d="M -22 -12 L -18 -8" stroke="white" stroke-width="3" stroke-linecap="round" opacity="0.8"/>
    <path d="M 22 -12 L 18 -8" stroke="white" stroke-width="3" stroke-linecap="round" opacity="0.8"/>
  </g>
  <circle cx="140" cy="70" r="6" fill="#F59E0B" opacity="0.8"/>
  <circle cx="160" cy="110" r="4" fill="#EF4444" opacity="0.7"/>
  <circle cx="130" cy="140" r="5" fill="#10B981" opacity="0.8"/>
  <circle cx="70" cy="140" r="4" fill="#8B5CF6" opacity="0.7"/>
  <circle cx="40" cy="110" r="6" fill="#F59E0B" opacity="0.8"/>
  <circle cx="60" cy="70" r="5" fill="#EF4444" opacity="0.7"/>
</svg>