<svg xmlns="http://www.w3.org/2000/svg" version="1.1" xmlns:xlink="http://www.w3.org/1999/xlink" width="200" height="200"><svg xmlns="http://www.w3.org/2000/svg" version="1.1" xmlns:xlink="http://www.w3.org/1999/xlink" width="200" height="200"><svg viewBox="0 0 200 200" xmlns="http://www.w3.org/2000/svg">
  <circle cx="100" cy="100" r="100" fill="#3B82F6"></circle>
  <g transform="translate(100,100) scale(3.1) translate(-100,-100)">
    <g transform="translate(100,107)">
     <rect x="-3" y="-26" width="6" height="8" rx="3" fill="white"></rect>
    <path d="M -15 -18 C -15 -24 -8 -30 0 -30 C 8 -30 15 -24 15 -18 L 15 0 C 15 3 12 6 9 6 L -9 6 C -12 6 -15 3 -15 0 Z" fill="white"></path>
    <ellipse cx="0" cy="6" rx="18" ry="3" fill="white"></ellipse>
    <circle cx="0" cy="12" r="3.5" fill="white"></circle>
    <path d="M -22 -12 L -18 -8" stroke="white" stroke-width="3" stroke-linecap="round" opacity="0.8"></path>
    <path d="M 22 -12 L 18 -8" stroke="white" stroke-width="3" stroke-linecap="round" opacity="0.8"></path>
    </g>
  </g>
</svg><style>@media (prefers-color-scheme: light) { :root { filter: none; } }
@media (prefers-color-scheme: dark) { :root { filter: none; } }
</style></svg><style>@media (prefers-color-scheme: light) { :root { filter: none; } }
@media (prefers-color-scheme: dark) { :root { filter: none; } }
</style></svg>